<?xml version="1.0" standalone="no"?>
<!DOCTYPE svg PUBLIC "-//W3C//DTD SVG 20010904//EN"
 "http://www.w3.org/TR/2001/REC-SVG-20010904/DTD/svg10.dtd">
<svg version="1.0" xmlns="http://www.w3.org/2000/svg"
 width="80.000000pt" height="80.000000pt" viewBox="0 0 80.000000 80.000000"
 preserveAspectRatio="xMidYMid meet">
<metadata>
Created by potrace 1.14, written by Peter Selinger 2001-2017
</metadata>
<g transform="translate(0.000000,80.000000) scale(0.100000,-0.100000)"
fill="#000000" stroke="none">
<path d="M231 784 c10 -12 10 -15 -2 -12 -8 2 -13 -2 -12 -8 1 -6 -11 -18 -27
-28 -28 -16 -30 -16 -25 1 3 10 0 8 -6 -4 -7 -13 -16 -23 -21 -23 -13 0 -38
-26 -38 -40 0 -6 -5 -8 -12 -4 -8 5 -9 2 -5 -10 4 -9 3 -15 -2 -12 -5 3 -15
-2 -22 -11 -12 -14 -12 -16 0 -8 10 6 12 4 7 -4 -5 -7 -14 -10 -22 -7 -8 3
-11 0 -8 -9 3 -7 -3 -16 -15 -20 -20 -6 -21 -13 -21 -178 0 -172 5 -201 31
-195 8 2 14 -5 14 -17 0 -11 8 -21 18 -23 9 -2 15 -8 12 -13 -4 -5 -1 -9 5 -9
6 0 8 -4 5 -10 -3 -6 1 -7 10 -4 11 5 14 2 8 -12 -5 -14 -3 -16 11 -11 10 4
15 3 11 -3 -3 -6 -1 -10 5 -10 6 0 8 -5 5 -10 -4 -6 7 -13 24 -16 18 -4 28
-11 24 -17 -3 -6 -1 -7 5 -3 15 9 55 -18 44 -30 -4 -4 0 -3 10 4 12 10 18 10
24 1 4 -8 3 -9 -4 -5 -7 4 -12 3 -12 -2 0 -6 7 -13 16 -16 25 -10 292 -6 269
4 -11 5 -14 9 -7 11 6 1 18 2 25 3 6 1 11 8 9 16 -3 11 0 11 14 -1 16 -12 17
-12 12 2 -5 11 -1 16 10 15 9 0 16 4 15 11 -2 8 4 10 14 6 13 -5 15 -2 9 12
-4 11 -4 16 0 12 4 -4 13 -2 21 4 7 6 13 9 13 6 0 -8 61 51 61 60 0 4 7 12 15
16 8 4 14 14 14 21 0 8 8 13 18 12 14 -1 18 9 20 48 2 29 -2 53 -9 60 -9 8
-10 8 -4 -2 6 -11 3 -11 -14 0 -18 11 -23 11 -31 -2 -7 -11 -10 -11 -10 -2 0
8 -5 10 -12 5 -16 -9 -59 -12 -53 -3 2 3 -14 6 -36 7 -23 0 -39 -4 -39 -11 0
-6 -5 -4 -10 4 -8 13 -10 13 -10 1 0 -12 -3 -12 -12 -3 -9 9 -15 9 -27 -1 -10
-8 -12 -8 -8 -1 5 9 -17 12 -82 10 -52 0 -87 3 -83 8 3 5 -3 6 -14 2 -10 -4
-15 -4 -11 0 4 4 -1 13 -11 21 -9 8 -11 12 -4 8 17 -9 15 3 -3 22 -21 20 -11
30 12 12 17 -13 17 -12 0 8 -14 16 -15 22 -5 26 10 4 10 8 -2 17 -13 10 -13
11 0 9 29 -3 41 1 34 12 -4 8 0 8 15 0 13 -7 21 -8 21 -2 0 6 7 7 17 4 11 -4
14 -3 9 5 -5 8 -2 10 8 6 9 -3 13 -11 9 -17 -3 -6 -1 -7 5 -3 6 4 32 7 57 8
25 0 45 5 45 10 0 5 5 6 10 3 6 -4 8 -11 5 -16 -4 -5 -1 -9 4 -9 6 0 11 3 11
8 0 4 11 8 25 8 14 1 23 -1 20 -6 -2 -4 7 -5 20 -2 14 2 22 8 19 13 -3 5 2 6
10 3 9 -3 14 -10 11 -14 -3 -5 9 -5 27 1 40 11 41 11 33 0 -3 -6 7 -6 27 0 18
5 34 9 35 9 2 0 3 19 3 43 0 48 -10 69 -30 65 -8 -2 -14 4 -15 12 -1 8 -6 14
-13 12 -11 -2 -13 4 -11 24 0 4 -14 14 -31 22 -17 8 -28 17 -26 20 3 3 12 -1
21 -8 9 -7 18 -11 20 -8 3 3 -6 11 -20 18 -14 7 -25 17 -25 22 0 4 -10 8 -22
8 -19 0 -20 2 -8 10 13 8 12 10 -3 10 -11 0 -26 8 -35 18 -10 10 -13 13 -9 6
5 -7 3 -15 -4 -20 -7 -4 -9 -3 -5 4 3 6 2 13 -4 17 -5 3 -10 15 -10 26 0 19
-7 20 -176 19 -153 -2 -174 -4 -163 -16z"/>
<path d="M650 79 c0 -5 5 -7 10 -4 6 3 10 8 10 11 0 2 -4 4 -10 4 -5 0 -10 -5
-10 -11z"/>
</g>
</svg>
